<?xml version="1.0" encoding="UTF-8"?>
<svg id="Calque_2" data-name="Calque 2" xmlns="http://www.w3.org/2000/svg" viewBox="0 0 2739.34 525.55">
  <defs>
    <style>
      .cls-1 {
        fill: #00af6c;
      }

      .cls-2 {
        fill: none;
        stroke: #00af6c;
        stroke-linecap: round;
        stroke-linejoin: round;
        stroke-width: 20px;
      }

      .cls-3 {
        fill: #240bbe;
      }
    </style>
  </defs>
  <g id="Calque_1-2" data-name="Calque 1">
    <path class="cls-3" d="M443.61,369.34h-84.27c-5.52,0-10-4.48-10-10s4.48-10,10-10h84.27c34.15,0,61.94-27.79,61.94-61.94v-49.25c0-34.15-27.79-61.94-61.94-61.94h-84.27c-5.52,0-10-4.48-10-10v-84.27c0-34.15-27.79-61.94-61.94-61.94h-49.25c-34.15,0-61.94,27.79-61.94,61.94v84.27c0,5.52-4.48,10-10,10h-84.27c-34.15,0-61.94,27.79-61.94,61.94v49.25c0,34.15,27.79,61.94,61.94,61.94h84.27c5.52,0,10,4.48,10,10s-4.48,10-10,10h-84.27c-45.18,0-81.94-36.76-81.94-81.94v-49.25c0-45.18,36.76-81.94,81.94-81.94h74.27v-74.27C156.21,36.76,192.97,0,238.15,0h49.25c45.18,0,81.94,36.76,81.94,81.94v74.27h74.27c45.18,0,81.94,36.76,81.94,81.94v49.25c0,45.18-36.76,81.94-81.94,81.94Z"/>
    <path class="cls-1" d="M262.78,525.55c-58.76,0-106.57-47.81-106.57-106.57v-59.64c0-5.52,4.48-10,10-10s10,4.48,10,10v59.64c0,47.73,38.83,86.57,86.57,86.57s86.57-38.83,86.57-86.57v-59.64c0-5.52,4.48-10,10-10s10,4.48,10,10v59.64c0,58.76-47.81,106.57-106.57,106.57Z"/>
    <path class="cls-1" d="M166.21,369.34c-5.52,0-10-4.48-10-10v-82.34c0-5.52,4.48-10,10-10s10,4.48,10,10v82.34c0,5.52-4.48,10-10,10Z"/>
    <path class="cls-1" d="M213.54,369.34c-5.52,0-10-4.48-10-10v-125.41c0-5.52,4.48-10,10-10s10,4.48,10,10v125.41c0,5.52-4.48,10-10,10Z"/>
    <path class="cls-1" d="M262.56,369.34c-5.52,0-10-4.48-10-10v-140.18c0-5.52,4.48-10,10-10s10,4.48,10,10v140.18c0,5.52-4.48,10-10,10Z"/>
    <path class="cls-1" d="M311.19,369.34c-5.52,0-10-4.48-10-10v-103.94c0-5.52,4.48-10,10-10s10,4.48,10,10v103.94c0,5.52-4.48,10-10,10Z"/>
    <polyline class="cls-2" points="358.93 277.01 358.93 359.34 2729.34 359.34"/>
  </g>
</svg>